{
  "accessors": [
    {
      "name": "Flats_17_Mesh.063-Mesh_0_positions",
      "componentType": 5126,
      "count": 2242,
      "min": [
        -28.629724502563477,
        -3.722321033477783,
        -29.1591739654541
      ],
      "max": [
        28.597869873046875,
        109.4117431640625,
        29.33458709716797
      ],
      "type": "VEC3",
      "bufferView": 0,
      "byteOffset": 0
    },
    {
      "name": "Flats_17_Mesh.063-Mesh_0_normals",
      "componentType": 5126,
      "count": 2242,
      "min": [
        -1,
        -1,
        -1
      ],
      "max": [
        1,
        1,
        1
      ],
      "type": "VEC3",
      "bufferView": 1,
      "byteOffset": 0
    },
    {
      "name": "Flats_17_Mesh.063-Mesh_0_texcoords",
      "componentType": 5126,
      "count": 2242,
      "min": [
        0.004129999782890081,
        -0.3366340100765228
      ],
      "max": [
        1,
        1.6056729555130005
      ],
      "type": "VEC2",
      "bufferView": 2,
      "byteOffset": 0
    },
    {
      "name": "Flats_17_Mesh.063-Mesh_0_indices",
      "componentType": 5123,
      "count": 3240,
      "min": [
        0
      ],
      "max": [
        2241
      ],
      "type": "SCALAR",
      "bufferView": 3,
      "byteOffset": 0
    }
  ],
  "asset": {
    "generator": "obj2gltf",
    "version": "2.0"
  },
  "buffers": [
    {
      "name": "s_01_03",
      "byteLength": 78224,
      "uri": "data:application/octet-stream;base64,"
    }
  ],
  "bufferViews": [
    {
      "name": "bufferView_0",
      "buffer": 0,
      "byteLength": 26904,
      "byteOffset": 0,
      "byteStride": 12,
      "target": 34962
    },
    {
      "name": "bufferView_1",
      "buffer": 0,
      "byteLength": 26904,
      "byteOffset": 26904,
      "byteStride": 12,
      "target": 34962
    },
    {
      "name": "bufferView_2",
      "buffer": 0,
      "byteLength": 17936,
      "byteOffset": 53808,
      "byteStride": 8,
      "target": 34962
    },
    {
      "name": "bufferView_3",
      "buffer": 0,
      "byteLength": 6480,
      "byteOffset": 71744,
      "target": 34963
    }
  ],
  "materials": [
    {
      "name": "default",
      "pbrMetallicRoughness": {
        "baseColorFactor": [
          0.5,
          0.5,
          0.5,
          1
        ],
        "metallicFactor": 0,
        "roughnessFactor": 1
      },
      "emissiveFactor": [
        0,
        0,
        0
      ],
      "alphaMode": "OPAQUE",
      "doubleSided": false
    }
  ],
  "meshes": [
    {
      "name": "Flats_17_Mesh.063-Mesh",
      "primitives": [
        {
          "attributes": {
            "POSITION": 0,
            "NORMAL": 1,
            "TEXCOORD_0": 2
          },
          "indices": 3,
          "material": 0,
          "mode": 4
        }
      ]
    }
  ],
  "nodes": [
    {
      "name": "Flats_17_Mesh.063",
      "mesh": 0
    }
  ],
  "scene": 0,
  "scenes": [
    {
      "nodes": [
        0
      ]
    }
  ]
}
