{
  "accessors": [
    {
      "name": "Flats_9_Mesh.055-Mesh_0_positions",
      "componentType": 5126,
      "count": 2180,
      "min": [
        -29.743736267089844,
        -4.211658000946045,
        -29.343700408935547
      ],
      "max": [
        29.58608627319336,
        100.13345336914062,
        29.529743194580078
      ],
      "type": "VEC3",
      "bufferView": 0,
      "byteOffset": 0
    },
    {
      "name": "Flats_9_Mesh.055-Mesh_0_normals",
      "componentType": 5126,
      "count": 2180,
      "min": [
        -1,
        -1,
        -1
      ],
      "max": [
        1,
        1,
        1
      ],
      "type": "VEC3",
      "bufferView": 1,
      "byteOffset": 0
    },
    {
      "name": "Flats_9_Mesh.055-Mesh_0_texcoords",
      "componentType": 5126,
      "count": 2180,
      "min": [
        -0.0014440000522881746,
        -5.547933101654053
      ],
      "max": [
        1.6593420505523682,
        1
      ],
      "type": "VEC2",
      "bufferView": 2,
      "byteOffset": 0
    },
    {
      "name": "Flats_9_Mesh.055-Mesh_0_indices",
      "componentType": 5123,
      "count": 2766,
      "min": [
        0
      ],
      "max": [
        2179
      ],
      "type": "SCALAR",
      "bufferView": 3,
      "byteOffset": 0
    }
  ],
  "asset": {
    "generator": "obj2gltf",
    "version": "2.0"
  },
  "buffers": [
    {
      "name": "s_01_02",
      "byteLength": 75292,
      "uri": "data:application/octet-stream;base64,"
    }
  ],
  "bufferViews": [
    {
      "name": "bufferView_0",
      "buffer": 0,
      "byteLength": 26160,
      "byteOffset": 0,
      "byteStride": 12,
      "target": 34962
    },
    {
      "name": "bufferView_1",
      "buffer": 0,
      "byteLength": 26160,
      "byteOffset": 26160,
      "byteStride": 12,
      "target": 34962
    },
    {
      "name": "bufferView_2",
      "buffer": 0,
      "byteLength": 17440,
      "byteOffset": 52320,
      "byteStride": 8,
      "target": 34962
    },
    {
      "name": "bufferView_3",
      "buffer": 0,
      "byteLength": 5532,
      "byteOffset": 69760,
      "target": 34963
    }
  ],
  "materials": [
    {
      "name": "default",
      "pbrMetallicRoughness": {
        "baseColorFactor": [
          0.5,
          0.5,
          0.5,
          1
        ],
        "metallicFactor": 0,
        "roughnessFactor": 1
      },
      "emissiveFactor": [
        0,
        0,
        0
      ],
      "alphaMode": "OPAQUE",
      "doubleSided": false
    }
  ],
  "meshes": [
    {
      "name": "Flats_9_Mesh.055-Mesh",
      "primitives": [
        {
          "attributes": {
            "POSITION": 0,
            "NORMAL": 1,
            "TEXCOORD_0": 2
          },
          "indices": 3,
          "material": 0,
          "mode": 4
        }
      ]
    }
  ],
  "nodes": [
    {
      "name": "Flats_9_Mesh.055",
      "mesh": 0
    }
  ],
  "scene": 0,
  "scenes": [
    {
      "nodes": [
        0
      ]
    }
  ]
}
