{
  "accessors": [
    {
      "name": "Flats_13_Mesh.059-Mesh_0_positions",
      "componentType": 5126,
      "count": 1556,
      "min": [
        -29.213001251220703,
        -0.8442800045013428,
        -29.467182159423828
      ],
      "max": [
        29.493925094604492,
        86.02032470703125,
        29.678117752075195
      ],
      "type": "VEC3",
      "bufferView": 0,
      "byteOffset": 0
    },
    {
      "name": "Flats_13_Mesh.059-Mesh_0_normals",
      "componentType": 5126,
      "count": 1556,
      "min": [
        -1,
        -1,
        -1
      ],
      "max": [
        1,
        1,
        1
      ],
      "type": "VEC3",
      "bufferView": 1,
      "byteOffset": 0
    },
    {
      "name": "Flats_13_Mesh.059-Mesh_0_texcoords",
      "componentType": 5126,
      "count": 1556,
      "min": [
        0.017131000757217407,
        -0.08176399767398834
      ],
      "max": [
        0.9809839725494385,
        1.1377609968185425
      ],
      "type": "VEC2",
      "bufferView": 2,
      "byteOffset": 0
    },
    {
      "name": "Flats_13_Mesh.059-Mesh_0_indices",
      "componentType": 5123,
      "count": 2538,
      "min": [
        0
      ],
      "max": [
        1555
      ],
      "type": "SCALAR",
      "bufferView": 3,
      "byteOffset": 0
    }
  ],
  "asset": {
    "generator": "obj2gltf",
    "version": "2.0"
  },
  "buffers": [
    {
      "name": "s_01_01",
      "byteLength": 54868,
      "uri": "data:application/octet-stream;base64,"
    }
  ],
  "bufferViews": [
    {
      "name": "bufferView_0",
      "buffer": 0,
      "byteLength": 18672,
      "byteOffset": 0,
      "byteStride": 12,
      "target": 34962
    },
    {
      "name": "bufferView_1",
      "buffer": 0,
      "byteLength": 18672,
      "byteOffset": 18672,
      "byteStride": 12,
      "target": 34962
    },
    {
      "name": "bufferView_2",
      "buffer": 0,
      "byteLength": 12448,
      "byteOffset": 37344,
      "byteStride": 8,
      "target": 34962
    },
    {
      "name": "bufferView_3",
      "buffer": 0,
      "byteLength": 5076,
      "byteOffset": 49792,
      "target": 34963
    }
  ],
  "materials": [
    {
      "name": "default",
      "pbrMetallicRoughness": {
        "baseColorFactor": [
          0.5,
          0.5,
          0.5,
          1
        ],
        "metallicFactor": 0,
        "roughnessFactor": 1
      },
      "emissiveFactor": [
        0,
        0,
        0
      ],
      "alphaMode": "OPAQUE",
      "doubleSided": false
    }
  ],
  "meshes": [
    {
      "name": "Flats_13_Mesh.059-Mesh",
      "primitives": [
        {
          "attributes": {
            "POSITION": 0,
            "NORMAL": 1,
            "TEXCOORD_0": 2
          },
          "indices": 3,
          "material": 0,
          "mode": 4
        }
      ]
    }
  ],
  "nodes": [
    {
      "name": "Flats_13_Mesh.059",
      "mesh": 0
    }
  ],
  "scene": 0,
  "scenes": [
    {
      "nodes": [
        0
      ]
    }
  ]
}
