{
  "accessors": [
    {
      "name": "Building_5_Mesh.004-Mesh_0_positions",
      "componentType": 5126,
      "count": 450,
      "min": [
        -25.086212158203125,
        -3.7765579223632812,
        -29.57889747619629
      ],
      "max": [
        25.400909423828125,
        125.8679428100586,
        29.954383850097656
      ],
      "type": "VEC3",
      "bufferView": 0,
      "byteOffset": 0
    },
    {
      "name": "Building_5_Mesh.004-Mesh_0_normals",
      "componentType": 5126,
      "count": 450,
      "min": [
        -1,
        -1,
        -1
      ],
      "max": [
        1,
        1,
        1
      ],
      "type": "VEC3",
      "bufferView": 1,
      "byteOffset": 0
    },
    {
      "name": "Building_5_Mesh.004-Mesh_0_texcoords",
      "componentType": 5126,
      "count": 450,
      "min": [
        0.005989000201225281,
        -0.7061370015144348
      ],
      "max": [
        0.9875349998474121,
        1.6630890369415283
      ],
      "type": "VEC2",
      "bufferView": 2,
      "byteOffset": 0
    },
    {
      "name": "Building_5_Mesh.004-Mesh_0_indices",
      "componentType": 5123,
      "count": 480,
      "min": [
        8
      ],
      "max": [
        449
      ],
      "type": "SCALAR",
      "bufferView": 3,
      "byteOffset": 0
    }
  ],
  "asset": {
    "generator": "obj2gltf",
    "version": "2.0"
  },
  "buffers": [
    {
      "name": "s_02_01",
      "byteLength": 15360,
      "uri": "data:application/octet-stream;base64,"
    }
  ],
  "bufferViews": [
    {
      "name": "bufferView_0",
      "buffer": 0,
      "byteLength": 5400,
      "byteOffset": 0,
      "byteStride": 12,
      "target": 34962
    },
    {
      "name": "bufferView_1",
      "buffer": 0,
      "byteLength": 5400,
      "byteOffset": 5400,
      "byteStride": 12,
      "target": 34962
    },
    {
      "name": "bufferView_2",
      "buffer": 0,
      "byteLength": 3600,
      "byteOffset": 10800,
      "byteStride": 8,
      "target": 34962
    },
    {
      "name": "bufferView_3",
      "buffer": 0,
      "byteLength": 960,
      "byteOffset": 14400,
      "target": 34963
    }
  ],
  "materials": [
    {
      "name": "default",
      "pbrMetallicRoughness": {
        "baseColorFactor": [
          0.5,
          0.5,
          0.5,
          1
        ],
        "metallicFactor": 0,
        "roughnessFactor": 1
      },
      "emissiveFactor": [
        0,
        0,
        0
      ],
      "alphaMode": "OPAQUE",
      "doubleSided": false
    }
  ],
  "meshes": [
    {
      "name": "Building_5_Mesh.004-Mesh",
      "primitives": [
        {
          "attributes": {
            "POSITION": 0,
            "NORMAL": 1,
            "TEXCOORD_0": 2
          },
          "indices": 3,
          "material": 0,
          "mode": 4
        }
      ]
    }
  ],
  "nodes": [
    {
      "name": "Building_5_Mesh.004",
      "mesh": 0
    }
  ],
  "scene": 0,
  "scenes": [
    {
      "nodes": [
        0
      ]
    }
  ]
}
