{
  "accessors": [
    {
      "name": "Office_7_Mesh.020-Mesh_0_positions",
      "componentType": 5126,
      "count": 845,
      "min": [
        -28.774211883544922,
        -1.9784469604492188,
        -30.124267578125
      ],
      "max": [
        28.639080047607422,
        180.72952270507812,
        29.650766372680664
      ],
      "type": "VEC3",
      "bufferView": 0,
      "byteOffset": 0
    },
    {
      "name": "Office_7_Mesh.020-Mesh_0_normals",
      "componentType": 5126,
      "count": 845,
      "min": [
        -1,
        -1,
        -1
      ],
      "max": [
        1,
        1,
        1
      ],
      "type": "VEC3",
      "bufferView": 1,
      "byteOffset": 0
    },
    {
      "name": "Office_7_Mesh.020-Mesh_0_texcoords",
      "componentType": 5126,
      "count": 845,
      "min": [
        0.007666999939829111,
        -0.4429379999637604
      ],
      "max": [
        0.9830809831619263,
        1.3045639991760254
      ],
      "type": "VEC2",
      "bufferView": 2,
      "byteOffset": 0
    },
    {
      "name": "Office_7_Mesh.020-Mesh_0_indices",
      "componentType": 5123,
      "count": 1188,
      "min": [
        0
      ],
      "max": [
        844
      ],
      "type": "SCALAR",
      "bufferView": 3,
      "byteOffset": 0
    }
  ],
  "asset": {
    "generator": "obj2gltf",
    "version": "2.0"
  },
  "buffers": [
    {
      "name": "s_03_02",
      "byteLength": 29416,
      "uri": "data:application/octet-stream;base64,"
    }
  ],
  "bufferViews": [
    {
      "name": "bufferView_0",
      "buffer": 0,
      "byteLength": 10140,
      "byteOffset": 0,
      "byteStride": 12,
      "target": 34962
    },
    {
      "name": "bufferView_1",
      "buffer": 0,
      "byteLength": 10140,
      "byteOffset": 10140,
      "byteStride": 12,
      "target": 34962
    },
    {
      "name": "bufferView_2",
      "buffer": 0,
      "byteLength": 6760,
      "byteOffset": 20280,
      "byteStride": 8,
      "target": 34962
    },
    {
      "name": "bufferView_3",
      "buffer": 0,
      "byteLength": 2376,
      "byteOffset": 27040,
      "target": 34963
    }
  ],
  "materials": [
    {
      "name": "default",
      "pbrMetallicRoughness": {
        "baseColorFactor": [
          0.5,
          0.5,
          0.5,
          1
        ],
        "metallicFactor": 0,
        "roughnessFactor": 1
      },
      "emissiveFactor": [
        0,
        0,
        0
      ],
      "alphaMode": "OPAQUE",
      "doubleSided": false
    }
  ],
  "meshes": [
    {
      "name": "Office_7_Mesh.020-Mesh",
      "primitives": [
        {
          "attributes": {
            "POSITION": 0,
            "NORMAL": 1,
            "TEXCOORD_0": 2
          },
          "indices": 3,
          "material": 0,
          "mode": 4
        }
      ]
    }
  ],
  "nodes": [
    {
      "name": "Office_7_Mesh.020",
      "mesh": 0
    }
  ],
  "scene": 0,
  "scenes": [
    {
      "nodes": [
        0
      ]
    }
  ]
}
