{
  "accessors": [
    {
      "name": "Media_6_Mesh.037-Mesh_0_positions",
      "componentType": 5126,
      "count": 2110,
      "min": [
        -30.629228591918945,
        -1.1568150520324707,
        -26.024215698242188
      ],
      "max": [
        30.675554275512695,
        185.37701416015625,
        26.520259857177734
      ],
      "type": "VEC3",
      "bufferView": 0,
      "byteOffset": 0
    },
    {
      "name": "Media_6_Mesh.037-Mesh_0_normals",
      "componentType": 5126,
      "count": 2110,
      "min": [
        -1,
        -1,
        -1
      ],
      "max": [
        1,
        1,
        1
      ],
      "type": "VEC3",
      "bufferView": 1,
      "byteOffset": 0
    },
    {
      "name": "Media_6_Mesh.037-Mesh_0_texcoords",
      "componentType": 5126,
      "count": 2110,
      "min": [
        0.027708999812602997,
        -0.6549670100212097
      ],
      "max": [
        1.2396659851074219,
        1.1705290079116821
      ],
      "type": "VEC2",
      "bufferView": 2,
      "byteOffset": 0
    },
    {
      "name": "Media_6_Mesh.037-Mesh_0_indices",
      "componentType": 5123,
      "count": 2397,
      "min": [
        8
      ],
      "max": [
        2109
      ],
      "type": "SCALAR",
      "bufferView": 3,
      "byteOffset": 0
    }
  ],
  "asset": {
    "generator": "obj2gltf",
    "version": "2.0"
  },
  "buffers": [
    {
      "name": "s_03_03",
      "byteLength": 72316,
      "uri": "data:application/octet-stream;base64,"
    }
  ],
  "bufferViews": [
    {
      "name": "bufferView_0",
      "buffer": 0,
      "byteLength": 25320,
      "byteOffset": 0,
      "byteStride": 12,
      "target": 34962
    },
    {
      "name": "bufferView_1",
      "buffer": 0,
      "byteLength": 25320,
      "byteOffset": 25320,
      "byteStride": 12,
      "target": 34962
    },
    {
      "name": "bufferView_2",
      "buffer": 0,
      "byteLength": 16880,
      "byteOffset": 50640,
      "byteStride": 8,
      "target": 34962
    },
    {
      "name": "bufferView_3",
      "buffer": 0,
      "byteLength": 4796,
      "byteOffset": 67520,
      "target": 34963
    }
  ],
  "materials": [
    {
      "name": "default",
      "pbrMetallicRoughness": {
        "baseColorFactor": [
          0.5,
          0.5,
          0.5,
          1
        ],
        "metallicFactor": 0,
        "roughnessFactor": 1
      },
      "emissiveFactor": [
        0,
        0,
        0
      ],
      "alphaMode": "OPAQUE",
      "doubleSided": false
    }
  ],
  "meshes": [
    {
      "name": "Media_6_Mesh.037-Mesh",
      "primitives": [
        {
          "attributes": {
            "POSITION": 0,
            "NORMAL": 1,
            "TEXCOORD_0": 2
          },
          "indices": 3,
          "material": 0,
          "mode": 4
        }
      ]
    }
  ],
  "nodes": [
    {
      "name": "Media_6_Mesh.037",
      "mesh": 0
    }
  ],
  "scene": 0,
  "scenes": [
    {
      "nodes": [
        0
      ]
    }
  ]
}
