{
  "accessors": [
    {
      "name": "Office_10_Mesh.023-Mesh_0_positions",
      "componentType": 5126,
      "count": 848,
      "min": [
        -29.763568878173828,
        -2.479675054550171,
        -28.64139747619629
      ],
      "max": [
        29.475605010986328,
        170.93515014648438,
        28.613182067871094
      ],
      "type": "VEC3",
      "bufferView": 0,
      "byteOffset": 0
    },
    {
      "name": "Office_10_Mesh.023-Mesh_0_normals",
      "componentType": 5126,
      "count": 848,
      "min": [
        -1,
        -1,
        -1
      ],
      "max": [
        1,
        1,
        1
      ],
      "type": "VEC3",
      "bufferView": 1,
      "byteOffset": 0
    },
    {
      "name": "Office_10_Mesh.023-Mesh_0_texcoords",
      "componentType": 5126,
      "count": 848,
      "min": [
        0.008217000402510166,
        -0.4069660007953644
      ],
      "max": [
        0.9923779964447021,
        2.4350080490112305
      ],
      "type": "VEC2",
      "bufferView": 2,
      "byteOffset": 0
    },
    {
      "name": "Office_10_Mesh.023-Mesh_0_indices",
      "componentType": 5123,
      "count": 1188,
      "min": [
        0
      ],
      "max": [
        847
      ],
      "type": "SCALAR",
      "bufferView": 3,
      "byteOffset": 0
    }
  ],
  "asset": {
    "generator": "obj2gltf",
    "version": "2.0"
  },
  "buffers": [
    {
      "name": "s_03_01",
      "byteLength": 29512,
      "uri": "data:application/octet-stream;base64,"
    }
  ],
  "bufferViews": [
    {
      "name": "bufferView_0",
      "buffer": 0,
      "byteLength": 10176,
      "byteOffset": 0,
      "byteStride": 12,
      "target": 34962
    },
    {
      "name": "bufferView_1",
      "buffer": 0,
      "byteLength": 10176,
      "byteOffset": 10176,
      "byteStride": 12,
      "target": 34962
    },
    {
      "name": "bufferView_2",
      "buffer": 0,
      "byteLength": 6784,
      "byteOffset": 20352,
      "byteStride": 8,
      "target": 34962
    },
    {
      "name": "bufferView_3",
      "buffer": 0,
      "byteLength": 2376,
      "byteOffset": 27136,
      "target": 34963
    }
  ],
  "materials": [
    {
      "name": "default",
      "pbrMetallicRoughness": {
        "baseColorFactor": [
          0.5,
          0.5,
          0.5,
          1
        ],
        "metallicFactor": 0,
        "roughnessFactor": 1
      },
      "emissiveFactor": [
        0,
        0,
        0
      ],
      "alphaMode": "OPAQUE",
      "doubleSided": false
    }
  ],
  "meshes": [
    {
      "name": "Office_10_Mesh.023-Mesh",
      "primitives": [
        {
          "attributes": {
            "POSITION": 0,
            "NORMAL": 1,
            "TEXCOORD_0": 2
          },
          "indices": 3,
          "material": 0,
          "mode": 4
        }
      ]
    }
  ],
  "nodes": [
    {
      "name": "Office_10_Mesh.023",
      "mesh": 0
    }
  ],
  "scene": 0,
  "scenes": [
    {
      "nodes": [
        0
      ]
    }
  ]
}
