{
  "accessors": [
    {
      "name": "Corporate_2_Mesh.041-Mesh_0_positions",
      "componentType": 5126,
      "count": 4274,
      "min": [
        -58.233421325683594,
        -3.435637950897217,
        -45.689945220947266
      ],
      "max": [
        57.728519439697266,
        522.2279052734375,
        49.431758880615234
      ],
      "type": "VEC3",
      "bufferView": 0,
      "byteOffset": 0
    },
    {
      "name": "Corporate_2_Mesh.041-Mesh_0_normals",
      "componentType": 5126,
      "count": 4274,
      "min": [
        -0.9999999403953552,
        -1,
        -1
      ],
      "max": [
        0.9999999403953552,
        1,
        1
      ],
      "type": "VEC3",
      "bufferView": 1,
      "byteOffset": 0
    },
    {
      "name": "Corporate_2_Mesh.041-Mesh_0_texcoords",
      "componentType": 5126,
      "count": 4274,
      "min": [
        0.03991999849677086,
        -2.899096965789795
      ],
      "max": [
        0.9675520062446594,
        1.8963600397109985
      ],
      "type": "VEC2",
      "bufferView": 2,
      "byteOffset": 0
    },
    {
      "name": "Corporate_2_Mesh.041-Mesh_0_indices",
      "componentType": 5123,
      "count": 5001,
      "min": [
        8
      ],
      "max": [
        4273
      ],
      "type": "SCALAR",
      "bufferView": 3,
      "byteOffset": 0
    }
  ],
  "asset": {
    "generator": "obj2gltf",
    "version": "2.0"
  },
  "buffers": [
    {
      "name": "s_04_03",
      "byteLength": 146772,
      "uri": "data:application/octet-stream;base64,"
    }
  ],
  "bufferViews": [
    {
      "name": "bufferView_0",
      "buffer": 0,
      "byteLength": 51288,
      "byteOffset": 0,
      "byteStride": 12,
      "target": 34962
    },
    {
      "name": "bufferView_1",
      "buffer": 0,
      "byteLength": 51288,
      "byteOffset": 51288,
      "byteStride": 12,
      "target": 34962
    },
    {
      "name": "bufferView_2",
      "buffer": 0,
      "byteLength": 34192,
      "byteOffset": 102576,
      "byteStride": 8,
      "target": 34962
    },
    {
      "name": "bufferView_3",
      "buffer": 0,
      "byteLength": 10004,
      "byteOffset": 136768,
      "target": 34963
    }
  ],
  "materials": [
    {
      "name": "default",
      "pbrMetallicRoughness": {
        "baseColorFactor": [
          0.5,
          0.5,
          0.5,
          1
        ],
        "metallicFactor": 0,
        "roughnessFactor": 1
      },
      "emissiveFactor": [
        0,
        0,
        0
      ],
      "alphaMode": "OPAQUE",
      "doubleSided": false
    }
  ],
  "meshes": [
    {
      "name": "Corporate_2_Mesh.041-Mesh",
      "primitives": [
        {
          "attributes": {
            "POSITION": 0,
            "NORMAL": 1,
            "TEXCOORD_0": 2
          },
          "indices": 3,
          "material": 0,
          "mode": 4
        }
      ]
    }
  ],
  "nodes": [
    {
      "name": "Corporate_2_Mesh.041",
      "mesh": 0
    }
  ],
  "scene": 0,
  "scenes": [
    {
      "nodes": [
        0
      ]
    }
  ]
}
