{
  "accessors": [
    {
      "name": "Corporate_6_Mesh.045-Mesh_0_positions",
      "componentType": 5126,
      "count": 4933,
      "min": [
        -60.838871002197266,
        -14.7119140625,
        -53.54244613647461
      ],
      "max": [
        59.737037658691406,
        439.4754638671875,
        58.178367614746094
      ],
      "type": "VEC3",
      "bufferView": 0,
      "byteOffset": 0
    },
    {
      "name": "Corporate_6_Mesh.045-Mesh_0_normals",
      "componentType": 5126,
      "count": 4933,
      "min": [
        -1,
        -1,
        -1
      ],
      "max": [
        1,
        1,
        1
      ],
      "type": "VEC3",
      "bufferView": 1,
      "byteOffset": 0
    },
    {
      "name": "Corporate_6_Mesh.045-Mesh_0_texcoords",
      "componentType": 5126,
      "count": 4933,
      "min": [
        0.008356999605894089,
        -2.51615309715271
      ],
      "max": [
        0.9893379807472229,
        1.606071949005127
      ],
      "type": "VEC2",
      "bufferView": 2,
      "byteOffset": 0
    },
    {
      "name": "Corporate_6_Mesh.045-Mesh_0_indices",
      "componentType": 5123,
      "count": 4932,
      "min": [
        8
      ],
      "max": [
        4932
      ],
      "type": "SCALAR",
      "bufferView": 3,
      "byteOffset": 0
    }
  ],
  "asset": {
    "generator": "obj2gltf",
    "version": "2.0"
  },
  "buffers": [
    {
      "name": "s_04_02",
      "byteLength": 167720,
      "uri": "data:application/octet-stream;base64,"
    }
  ],
  "bufferViews": [
    {
      "name": "bufferView_0",
      "buffer": 0,
      "byteLength": 59196,
      "byteOffset": 0,
      "byteStride": 12,
      "target": 34962
    },
    {
      "name": "bufferView_1",
      "buffer": 0,
      "byteLength": 59196,
      "byteOffset": 59196,
      "byteStride": 12,
      "target": 34962
    },
    {
      "name": "bufferView_2",
      "buffer": 0,
      "byteLength": 39464,
      "byteOffset": 118392,
      "byteStride": 8,
      "target": 34962
    },
    {
      "name": "bufferView_3",
      "buffer": 0,
      "byteLength": 9864,
      "byteOffset": 157856,
      "target": 34963
    }
  ],
  "materials": [
    {
      "name": "default",
      "pbrMetallicRoughness": {
        "baseColorFactor": [
          0.5,
          0.5,
          0.5,
          1
        ],
        "metallicFactor": 0,
        "roughnessFactor": 1
      },
      "emissiveFactor": [
        0,
        0,
        0
      ],
      "alphaMode": "OPAQUE",
      "doubleSided": false
    }
  ],
  "meshes": [
    {
      "name": "Corporate_6_Mesh.045-Mesh",
      "primitives": [
        {
          "attributes": {
            "POSITION": 0,
            "NORMAL": 1,
            "TEXCOORD_0": 2
          },
          "indices": 3,
          "material": 0,
          "mode": 4
        }
      ]
    }
  ],
  "nodes": [
    {
      "name": "Corporate_6_Mesh.045",
      "mesh": 0
    }
  ],
  "scene": 0,
  "scenes": [
    {
      "nodes": [
        0
      ]
    }
  ]
}
