{
  "accessors": [
    {
      "name": "Skyscreaper_8_2_Mesh.031-Mesh_0_positions",
      "componentType": 5126,
      "count": 1776,
      "min": [
        -32.91360855102539,
        -10.286651611328125,
        -58.413169860839844
      ],
      "max": [
        34.48038101196289,
        502.5967102050781,
        59.11446762084961
      ],
      "type": "VEC3",
      "bufferView": 0,
      "byteOffset": 0
    },
    {
      "name": "Skyscreaper_8_2_Mesh.031-Mesh_0_normals",
      "componentType": 5126,
      "count": 1776,
      "min": [
        -1,
        -1,
        -1
      ],
      "max": [
        1,
        1,
        1
      ],
      "type": "VEC3",
      "bufferView": 1,
      "byteOffset": 0
    },
    {
      "name": "Skyscreaper_8_2_Mesh.031-Mesh_0_texcoords",
      "componentType": 5126,
      "count": 1776,
      "min": [
        0.007426000200212002,
        -0.5863590240478516
      ],
      "max": [
        0.9879270195960999,
        2.850158929824829
      ],
      "type": "VEC2",
      "bufferView": 2,
      "byteOffset": 0
    },
    {
      "name": "Skyscreaper_8_2_Mesh.031-Mesh_0_indices",
      "componentType": 5123,
      "count": 2868,
      "min": [
        8
      ],
      "max": [
        1775
      ],
      "type": "SCALAR",
      "bufferView": 3,
      "byteOffset": 0
    }
  ],
  "asset": {
    "generator": "obj2gltf",
    "version": "2.0"
  },
  "buffers": [
    {
      "name": "s_04_01",
      "byteLength": 62568,
      "uri": "data:application/octet-stream;base64,"
    }
  ],
  "bufferViews": [
    {
      "name": "bufferView_0",
      "buffer": 0,
      "byteLength": 21312,
      "byteOffset": 0,
      "byteStride": 12,
      "target": 34962
    },
    {
      "name": "bufferView_1",
      "buffer": 0,
      "byteLength": 21312,
      "byteOffset": 21312,
      "byteStride": 12,
      "target": 34962
    },
    {
      "name": "bufferView_2",
      "buffer": 0,
      "byteLength": 14208,
      "byteOffset": 42624,
      "byteStride": 8,
      "target": 34962
    },
    {
      "name": "bufferView_3",
      "buffer": 0,
      "byteLength": 5736,
      "byteOffset": 56832,
      "target": 34963
    }
  ],
  "materials": [
    {
      "name": "default",
      "pbrMetallicRoughness": {
        "baseColorFactor": [
          0.5,
          0.5,
          0.5,
          1
        ],
        "metallicFactor": 0,
        "roughnessFactor": 1
      },
      "emissiveFactor": [
        0,
        0,
        0
      ],
      "alphaMode": "OPAQUE",
      "doubleSided": false
    }
  ],
  "meshes": [
    {
      "name": "Skyscreaper_8_2_Mesh.031-Mesh",
      "primitives": [
        {
          "attributes": {
            "POSITION": 0,
            "NORMAL": 1,
            "TEXCOORD_0": 2
          },
          "indices": 3,
          "material": 0,
          "mode": 4
        }
      ]
    }
  ],
  "nodes": [
    {
      "name": "Skyscreaper_8_2_Mesh.031",
      "mesh": 0
    }
  ],
  "scene": 0,
  "scenes": [
    {
      "nodes": [
        0
      ]
    }
  ]
}
