{
  "accessors": [
    {
      "name": "Corporate_4_Mesh.043-Mesh_0_positions",
      "componentType": 5126,
      "count": 1310,
      "min": [
        -60.4215087890625,
        -3.3431549072265625,
        -56.75102615356445
      ],
      "max": [
        60.28753662109375,
        436.65673828125,
        57.672420501708984
      ],
      "type": "VEC3",
      "bufferView": 0,
      "byteOffset": 0
    },
    {
      "name": "Corporate_4_Mesh.043-Mesh_0_normals",
      "componentType": 5126,
      "count": 1310,
      "min": [
        -0.9975612163543701,
        -1,
        -1
      ],
      "max": [
        0.9975612163543701,
        1,
        1
      ],
      "type": "VEC3",
      "bufferView": 1,
      "byteOffset": 0
    },
    {
      "name": "Corporate_4_Mesh.043-Mesh_0_texcoords",
      "componentType": 5126,
      "count": 1310,
      "min": [
        0.003364000003784895,
        -2.60719895362854
      ],
      "max": [
        0.9734910130500793,
        0.9921640157699585
      ],
      "type": "VEC2",
      "bufferView": 2,
      "byteOffset": 0
    },
    {
      "name": "Corporate_4_Mesh.043-Mesh_0_indices",
      "componentType": 5123,
      "count": 1287,
      "min": [
        8
      ],
      "max": [
        1309
      ],
      "type": "SCALAR",
      "bufferView": 3,
      "byteOffset": 0
    }
  ],
  "asset": {
    "generator": "obj2gltf",
    "version": "2.0"
  },
  "buffers": [
    {
      "name": "s_05_01",
      "byteLength": 44496,
      "uri": "data:application/octet-stream;base64,"
    }
  ],
  "bufferViews": [
    {
      "name": "bufferView_0",
      "buffer": 0,
      "byteLength": 15720,
      "byteOffset": 0,
      "byteStride": 12,
      "target": 34962
    },
    {
      "name": "bufferView_1",
      "buffer": 0,
      "byteLength": 15720,
      "byteOffset": 15720,
      "byteStride": 12,
      "target": 34962
    },
    {
      "name": "bufferView_2",
      "buffer": 0,
      "byteLength": 10480,
      "byteOffset": 31440,
      "byteStride": 8,
      "target": 34962
    },
    {
      "name": "bufferView_3",
      "buffer": 0,
      "byteLength": 2576,
      "byteOffset": 41920,
      "target": 34963
    }
  ],
  "materials": [
    {
      "name": "default",
      "pbrMetallicRoughness": {
        "baseColorFactor": [
          0.5,
          0.5,
          0.5,
          1
        ],
        "metallicFactor": 0,
        "roughnessFactor": 1
      },
      "emissiveFactor": [
        0,
        0,
        0
      ],
      "alphaMode": "OPAQUE",
      "doubleSided": false
    }
  ],
  "meshes": [
    {
      "name": "Corporate_4_Mesh.043-Mesh",
      "primitives": [
        {
          "attributes": {
            "POSITION": 0,
            "NORMAL": 1,
            "TEXCOORD_0": 2
          },
          "indices": 3,
          "material": 0,
          "mode": 4
        }
      ]
    }
  ],
  "nodes": [
    {
      "name": "Corporate_4_Mesh.043",
      "mesh": 0
    }
  ],
  "scene": 0,
  "scenes": [
    {
      "nodes": [
        0
      ]
    }
  ]
}
