{
  "accessors": [
    {
      "name": "Corporate_3_Mesh.042-Mesh_0_positions",
      "componentType": 5126,
      "count": 816,
      "min": [
        -60.68413543701172,
        -5.068115234375,
        -50.048221588134766
      ],
      "max": [
        60.335350036621094,
        475.638916015625,
        52.337501525878906
      ],
      "type": "VEC3",
      "bufferView": 0,
      "byteOffset": 0
    },
    {
      "name": "Corporate_3_Mesh.042-Mesh_0_normals",
      "componentType": 5126,
      "count": 816,
      "min": [
        -0.99998939037323,
        -1,
        -1
      ],
      "max": [
        0.99998939037323,
        1,
        1
      ],
      "type": "VEC3",
      "bufferView": 1,
      "byteOffset": 0
    },
    {
      "name": "Corporate_3_Mesh.042-Mesh_0_texcoords",
      "componentType": 5126,
      "count": 816,
      "min": [
        0.004139000084251165,
        -2.0866470336914062
      ],
      "max": [
        0.9899290204048157,
        3.228888988494873
      ],
      "type": "VEC2",
      "bufferView": 2,
      "byteOffset": 0
    },
    {
      "name": "Corporate_3_Mesh.042-Mesh_0_indices",
      "componentType": 5123,
      "count": 756,
      "min": [
        8
      ],
      "max": [
        815
      ],
      "type": "SCALAR",
      "bufferView": 3,
      "byteOffset": 0
    }
  ],
  "asset": {
    "generator": "obj2gltf",
    "version": "2.0"
  },
  "buffers": [
    {
      "name": "s_05_03",
      "byteLength": 27624,
      "uri": "data:application/octet-stream;base64,"
    }
  ],
  "bufferViews": [
    {
      "name": "bufferView_0",
      "buffer": 0,
      "byteLength": 9792,
      "byteOffset": 0,
      "byteStride": 12,
      "target": 34962
    },
    {
      "name": "bufferView_1",
      "buffer": 0,
      "byteLength": 9792,
      "byteOffset": 9792,
      "byteStride": 12,
      "target": 34962
    },
    {
      "name": "bufferView_2",
      "buffer": 0,
      "byteLength": 6528,
      "byteOffset": 19584,
      "byteStride": 8,
      "target": 34962
    },
    {
      "name": "bufferView_3",
      "buffer": 0,
      "byteLength": 1512,
      "byteOffset": 26112,
      "target": 34963
    }
  ],
  "materials": [
    {
      "name": "default",
      "pbrMetallicRoughness": {
        "baseColorFactor": [
          0.5,
          0.5,
          0.5,
          1
        ],
        "metallicFactor": 0,
        "roughnessFactor": 1
      },
      "emissiveFactor": [
        0,
        0,
        0
      ],
      "alphaMode": "OPAQUE",
      "doubleSided": false
    }
  ],
  "meshes": [
    {
      "name": "Corporate_3_Mesh.042-Mesh",
      "primitives": [
        {
          "attributes": {
            "POSITION": 0,
            "NORMAL": 1,
            "TEXCOORD_0": 2
          },
          "indices": 3,
          "material": 0,
          "mode": 4
        }
      ]
    }
  ],
  "nodes": [
    {
      "name": "Corporate_3_Mesh.042",
      "mesh": 0
    }
  ],
  "scene": 0,
  "scenes": [
    {
      "nodes": [
        0
      ]
    }
  ]
}
